<?xml version="1.0" standalone="no"?>
<!DOCTYPE svg PUBLIC "-//W3C//DTD SVG 20010904//EN"
 "http://www.w3.org/TR/2001/REC-SVG-20010904/DTD/svg10.dtd">
<svg version="1.0" xmlns="http://www.w3.org/2000/svg"
 width="144.000000pt" height="151.000000pt" viewBox="0 0 144.000000 151.000000"
 preserveAspectRatio="xMidYMid meet">

<g transform="translate(0.000000,151.000000) scale(0.100000,-0.100000)"
fill="#000000" stroke="none">
<path d="M815 1487 c-3 -7 -4 -76 -3 -152 l3 -140 83 -3 83 -3 -3 153 -3 153
-78 3 c-57 2 -79 -1 -82 -11z"/>
<path d="M398 1367 c-32 -18 -58 -36 -58 -41 0 -16 144 -256 154 -256 15 0
136 70 136 79 0 5 -32 63 -71 130 -46 78 -77 121 -88 121 -9 -1 -42 -15 -73
-33z"/>
<path d="M67 1053 c-50 -79 -60 -105 -45 -114 68 -44 250 -139 257 -135 13 8
71 113 71 128 0 12 -30 30 -202 127 l-57 32 -24 -38z"/>
<path d="M780 1054 c-251 -54 -425 -270 -423 -524 3 -228 147 -420 373 -496
83 -28 253 -26 342 4 126 44 246 149 306 267 56 112 69 269 32 386 -58 185
-212 323 -405 364 -85 18 -140 18 -225 -1z m273 -188 c69 -33 138 -100 175
-170 24 -46 27 -61 27 -156 0 -102 -1 -107 -36 -170 -67 -122 -184 -190 -324
-190 -210 0 -367 154 -367 362 -1 65 4 86 30 142 48 101 141 180 246 207 17 5
67 7 112 5 61 -3 93 -10 137 -30z"/>
<path d="M850 663 c-23 -9 -60 -45 -76 -75 -43 -83 24 -178 127 -180 100 -1
160 112 104 198 -32 50 -103 76 -155 57z"/>
</g>
</svg>
